<?xml version="1.0" encoding="UTF-8"?>
<svg width="748px" height="168px" viewBox="0 0 748 168" version="1.1" xmlns="http://www.w3.org/2000/svg" xmlns:xlink="http://www.w3.org/1999/xlink">
    <!-- Generator: Sketch 58 (84663) - https://sketch.com -->
    <title>画板</title>
    <desc>Created with Sketch.</desc>
    <defs>
        <path d="M750,0.00122571085 L750,168.000361 L0,168.000361 L0,0.00122571085 L0.164293296,0.00100349746 C2.19688644,24.6391361 22.8373374,44.0010255 48,44.0010255 L48,44.0010255 L700.005319,44.0010255 C725.167982,44.0010255 745.808433,24.6391361 747.841026,0.00100349746 L750,0.00122571085 Z" id="path-1"></path>
        <filter x="-6.1%" y="-39.3%" width="112.3%" height="154.8%" filterUnits="objectBoundingBox" id="filter-2">
            <feOffset dx="0" dy="-20" in="SourceAlpha" result="shadowOffsetOuter1"></feOffset>
            <feGaussianBlur stdDeviation="12" in="shadowOffsetOuter1" result="shadowBlurOuter1"></feGaussianBlur>
            <feColorMatrix values="0 0 0 0 0   0 0 0 0 0   0 0 0 0 0  0 0 0 0.06 0" type="matrix" in="shadowBlurOuter1"></feColorMatrix>
        </filter>
    </defs>
    <g id="画板" stroke="none" stroke-width="1" fill="none" fill-rule="evenodd">
        <g id="会员特权背景">
            <g id="形状结合">
                <use fill="black" fill-opacity="1" filter="url(#filter-2)" xlink:href="#path-1"></use>
                <use fill="#FFFFFF" fill-rule="evenodd" xlink:href="#path-1"></use>
            </g>
            <text id="ViP会员特权" font-family="PingFangSC-Medium, PingFang SC" font-size="32" font-weight="400" letter-spacing="-0.115502223" fill="#211F24">
                <tspan x="286" y="118.000361">ViP会员特权</tspan>
            </text>
            <rect id="矩形" fill="#F3F3F3" x="26" y="106.000361" width="180" height="2"></rect>
            <rect id="矩形备份" fill="#F3F3F3" x="546" y="106.000361" width="180" height="2"></rect>
            <g id="会员特权左边-icon" transform="translate(242.000000, 100.000361)" fill="#C3213B" fill-rule="nonzero">
                <path d="M11.7636719,13.359375 L19.5195312,13.359375 L19.5195312,0 L11.7636719,5.60351562 L11.7636719,13.359375 Z M0,13.359375 L0,5.60351562 L7.75585938,0 L7.75585938,13.359375 L0,13.359375 Z"></path>
            </g>
            <g id="会员特权左边-icon" transform="translate(488.000000, 100.000361)" fill="#C3213B" fill-rule="nonzero">
                <path d="M0,13.359375 L7.75585938,7.75585938 L7.75585938,0 L0,0 L0,13.359375 Z M11.7636719,13.359375 L11.7636719,0 L19.5195312,0 L19.5195312,7.75585938 L11.7636719,13.359375 Z" id="会员特权右边-icon"></path>
            </g>
        </g>
    </g>
</svg>