<?xml version="1.0" encoding="UTF-8"?>
<svg width="702px" height="244px" viewBox="0 0 702 244" version="1.1" xmlns="http://www.w3.org/2000/svg" xmlns:xlink="http://www.w3.org/1999/xlink">
    <!-- Generator: Sketch 58 (84663) - https://sketch.com -->
    <title>会员背景备份</title>
    <desc>Created with Sketch.</desc>
    <defs>
        <linearGradient x1="1.6488429%" y1="44.5594456%" x2="100%" y2="55.2741268%" id="linearGradient-1">
            <stop stop-color="#E8EDF0" offset="0%"></stop>
            <stop stop-color="#D5D7DD" offset="100%"></stop>
        </linearGradient>
        <path d="M686,0 C694.836556,-1.623249e-15 702,7.163444 702,16 L702.000318,152.140331 C697.217732,154.906761 694,160.07761 694,166 C694,171.92239 697.217732,177.093239 702.000318,179.859669 L702,228 C702,236.836556 694.836556,244 686,244 L16,244 C7.163444,244 -4.84337809e-14,236.836556 -4.95159469e-14,228 L0.000386118226,179.859262 C4.78258415,177.092731 8,171.922099 8,166 C8,160.077901 4.78258415,154.907269 0.000386118226,152.140738 L-4.95159469e-14,16 C-5.05981129e-14,7.163444 7.163444,1.623249e-15 16,0 L686,0 Z" id="path-2"></path>
        <linearGradient x1="50%" y1="0%" x2="50%" y2="100%" id="linearGradient-4">
            <stop stop-color="#D4D5DA" offset="0%"></stop>
            <stop stop-color="#D4D5DA" offset="100%"></stop>
        </linearGradient>
    </defs>
    <g id="组件" stroke="none" stroke-width="1" fill="none" fill-rule="evenodd">
        <g id="会员背景备份">
            <g id="会员背景">
                <g id="矩形">
                    <mask id="mask-3" fill="white">
                        <use xlink:href="#path-2"></use>
                    </mask>
                    <use id="形状结合" fill="url(#linearGradient-1)" xlink:href="#path-2"></use>
                    <path d="M288.961627,188.029466 L78.0046228,309.820834 C76.5960338,309.773414 75.1906557,309.713327 73.7885989,309.640685 L290.913475,184.287001 C290.273985,185.541179 289.623325,186.788711 288.961627,188.029466 Z M106.574954,309.035213 C107.208022,308.978769 107.840353,308.91976 108.471935,308.858196 Z M300.392409,163.107686 L50.6882304,307.277241 C49.5046861,307.095496 48.3241152,306.904729 47.1465901,306.705013 L301.661858,159.757547 C301.247166,160.8784 300.823991,161.99514 300.392409,163.107686 Z M307.832319,140.496992 L27.3375734,302.435255 C26.306005,302.164531 25.2772659,301.886823 24.2514097,301.602184 L308.649785,137.408007 C308.384267,138.440491 308.111761,139.470171 307.832319,140.496992 Z M155.002082,299.386744 C155.048933,299.372 155.095778,299.357243 155.142617,299.34247 Z M312.49995,119.483848 L6.77862121,295.988215 C5.85902245,295.651389 4.94217387,295.308859 4.02811831,294.960667 L312.982838,116.585846 C312.827903,117.553877 312.666926,118.519891 312.49995,119.483848 Z M315.048972,99.6921907 L-11.6488772,288.309783 C-12.4796915,287.920202 -13.3077941,287.525798 -14.1331492,287.126607 L315.26551,96.9519131 C315.198673,97.8668353 315.126483,98.7802715 315.048972,99.6921907 Z M315.884144,79.9532732 L315.875971,80.8899585 L-28.3424028,279.628784 C-29.0981094,279.195541 -29.8511217,278.758131 -30.6014086,278.316586 L315.878154,78.2757001 C315.882145,78.8344198 315.884144,79.393613 315.884144,79.9532732 Z M315.26361,62.9286336 L-43.5610892,270.095842 C-44.2519456,269.62461 -44.9401012,269.14971 -45.6255281,268.671173 L315.066646,60.4234132 C315.136757,61.2572289 315.202419,62.0923103 315.26361,62.9286336 Z M313.35251,45.7110472 L-57.4815177,259.815113 C-58.1146651,259.309775 -58.7450851,258.801162 -59.372752,258.289303 L312.98092,43.3087188 C313.10891,44.1081268 313.232781,44.9089104 313.35251,45.7110472 Z M310.26083,29.1782405 L-70.230715,248.857562 C-70.8109324,248.321017 -71.3883796,247.78152 -71.9630327,247.239095 L309.727878,26.8689223 C309.909389,27.6372134 310.087047,28.4069933 310.26083,29.1782405 Z M79.285178,144.21299 L-81.8977887,237.273213 C-82.4278316,236.708147 -82.9550527,236.140403 -83.4794294,235.570002 L75.5681862,143.743396 C76.7962121,143.93368 78.035541,144.090537 79.285178,144.21299 Z M57.7455737,138.331225 L-92.5417083,225.099955 C-93.0246012,224.507064 -93.504598,223.911721 -93.9816771,223.313947 L55.297593,137.127328 C56.1038286,137.544758 56.9199678,137.9462 57.7455737,138.331225 Z M42.7461277,128.672794 L-102.204527,212.359667 C-102.641557,211.739984 -103.075603,211.118046 -103.506643,210.493872 L40.9590833,127.086103 C41.5448069,127.625524 42.1405905,128.154521 42.7461277,128.672794 Z M31.8131843,116.665374 L-110.909568,199.065781 C-111.301165,198.420183 -111.689675,197.772504 -112.075077,197.122765 L30.5372947,114.784492 C30.9516864,115.419134 31.377071,116.046181 31.8131843,116.665374 Z M24.3455245,102.657045 L-118.664616,185.224177 C-119.011226,184.552047 -119.354622,183.877989 -119.694781,183.202022 L23.5629322,100.492208 C23.811065,101.219685 24.072017,101.941384 24.3455245,102.657045 Z M20.5089013,86.5540816 L-125.464283,170.831777 C-125.765178,170.132942 -126.062708,169.432317 -126.356853,168.729923 L20.3003706,84.0567736 C20.3537648,84.8936323 20.4233768,85.7261683 20.5089013,86.5540816 Z M21.3406643,67.753691 L-131.289537,155.87709 C-131.543488,155.150629 -131.793897,154.422506 -132.040744,153.69274 L21.9996575,64.756079 C21.7565627,65.7465774 21.5366988,66.7459774 21.3406643,67.753691 Z M31.6382045,43.490856 L-136.107249,140.337956 C-136.312073,139.58317 -136.513151,138.826842 -136.71046,138.068993 L35.2461859,38.7899147 C33.9733116,40.3005362 32.7690849,41.8690559 31.6382045,43.490856 Z M237.031124,-93.4137049 L-139.865758,124.189914 C-140.018712,123.404815 -140.167672,122.618288 -140.312617,121.830356 L235.215732,-94.9812382 C235.823611,-94.4618318 236.42875,-93.9393125 237.031124,-93.4137049 Z M223.825344,-104.107724 L-142.496464,107.388983 C-142.593656,106.571309 -142.686558,105.752318 -142.775147,104.932035 L221.843855,-105.578598 C222.507067,-105.091768 223.167572,-104.601468 223.825344,-104.107724 Z M306.071381,13.2784205 L146.227914,105.565386 C146.722438,104.441609 147.185411,103.301293 147.615734,102.145516 L305.386831,11.0556855 C305.618653,11.7949971 305.846844,12.5359158 306.071381,13.2784205 Z M209.403002,-114.099248 L-143.905356,89.8832702 C-143.94156,89.0309582 -143.973126,88.1774456 -144.000029,87.322757 L207.236289,-115.464388 C207.961231,-115.013253 208.683478,-114.558196 209.403002,-114.099248 Z M300.845376,-2.02383104 L151.456857,84.2265793 C151.516071,83.3357497 151.556906,82.439992 151.578992,81.5396689 L300.016988,-4.1624688 C300.296564,-3.45131235 300.572701,-2.73842627 300.845376,-2.02383104 Z M193.618923,-123.305917 L-143.966913,71.5979436 C-143.934984,70.7037978 -143.897952,69.8109521 -143.855844,68.9194349 L191.244743,-124.549207 C192.038842,-124.139255 192.830247,-123.724814 193.618923,-123.305917 Z M294.626281,-16.7530848 L150.199221,66.6336592 C150.034021,65.8593566 149.854709,65.0901545 149.66156,64.3263247 L293.658455,-18.8117836 C293.984352,-18.127408 294.306968,-17.4411682 294.626281,-16.7530848 Z M176.269021,-131.607006 L-142.485261,52.4234763 C-142.372969,51.4820677 -142.25499,50.542405 -142.131361,49.6045235 L173.644723,-132.710357 C174.522235,-132.347833 175.397014,-131.980036 176.269021,-131.607006 Z M287.442822,-30.9238307 L144.845253,51.404457 C144.505717,50.7284847 144.1545,50.0591936 143.791861,49.3968385 L286.338701,-32.903515 C286.709893,-32.2456237 287.07794,-31.5857222 287.442822,-30.9238307 Z M279.308102,-44.5455498 L136.008945,38.1883507 C135.504335,37.6040178 134.989334,37.028623 134.464223,36.4624421 L278.067982,-46.447601 C278.484394,-45.8157523 278.897775,-45.1817283 279.308102,-44.5455498 Z M157.042719,-138.82751 L-139.147794,32.1801954 C-138.936251,31.1787893 -138.718193,30.1797865 -138.493666,29.1832334 L154.120112,-139.755771 C155.097119,-139.452673 156.071337,-139.143236 157.042719,-138.82751 Z M270.221716,-57.6187023 L123.578567,27.0462071 C122.884218,26.5675337 122.180014,26.1017263 121.466316,25.6491372 L268.8447,-59.4419533 C269.306649,-58.8365568 269.765661,-58.2287994 270.221716,-57.6187023 Z M260.169644,-70.1345698 L106.471333,18.6046174 C105.484573,18.2849843 104.487478,17.9877028 103.480668,17.7133827 L258.653358,-71.8760708 C259.161648,-71.2981344 259.667084,-70.7176267 260.169644,-70.1345698 Z M249.122812,-82.0749407 L79.8769223,15.6382151 C77.8816484,15.8159163 75.9121209,16.0812679 73.9723583,16.4303206 L247.460206,-83.7329824 C248.017208,-83.1831162 248.571418,-82.6304279 249.122812,-82.0749407 Z M135.465717,-144.688979 L-133.470845,10.5864319 C-133.13062,9.50954883 -132.782685,8.43609114 -132.427103,7.36612358 L132.150175,-145.391728 C133.258277,-145.165425 134.363478,-144.931155 135.465717,-144.688979 Z M110.720992,-148.7213 L-124.631221,-12.8360093 C-124.107581,-14.022284 -123.574209,-15.2032988 -123.031204,-16.3789522 L106.850937,-149.103893 C108.144073,-148.987036 109.434121,-148.859475 110.720992,-148.7213 Z M81.2032007,-150.000042 L-110.981237,-39.0409989 C-71.4312649,-104.332734 -0.316228831,-148.372638 81.2032007,-150.000042 Z M42.4683515,-145.954992 L-87.949405,-70.6573294 C-54.7939623,-108.89181 -9.23434111,-136.078066 42.4683515,-145.954992 Z" id="形状结合" fill="url(#linearGradient-4)" opacity="0.179999992" mask="url(#mask-3)" transform="translate(85.942058, 79.910396) scale(-1, 1) rotate(-210.000000) translate(-85.942058, -79.910396) "></path>
                    <polygon fill="#E7E8ED" opacity="0.654452188" mask="url(#mask-3)" points="393.756956 0 678 0 520.243044 244 236 244"></polygon>
                    <path d="M691.934967,244 L590.044136,244 C573.180744,244 559.472708,229.224196 559.472708,211.047254 L559.472708,183.905724 L553.391856,124.847556 C542.483937,123.406014 534,113.360269 534,101.219784 C534,88.0882387 543.904892,77.4118193 556.066595,77.4118193 C568.228298,77.4118193 578.13319,88.0882387 578.13319,101.219784 C578.13319,106.693138 576.377893,111.896203 573.243433,116.085684 L607.743384,163.904331 L629.371155,93.9445025 C622.955961,89.6874492 618.90206,82.1193545 618.90206,73.7854406 C618.90206,60.6538953 628.806952,50 640.968655,50 C653.130358,50 663.077043,60.6538953 663.077043,73.7629165 C663.077043,82.0968304 659.023142,89.6649251 652.607948,93.9219784 L674.235719,163.881807 L708.73567,116.085684 C705.580314,111.896203 703.845913,106.693138 703.845913,101.219784 C703.845913,88.0882387 713.750806,77.4118193 725.912509,77.4118193 C738.074212,77.4118193 748,88.0882387 748,101.219784 C748,113.360269 739.516063,123.406014 728.608144,124.847556 L722.506396,183.905724 L722.506396,211.047254 C722.506396,229.224196 708.79836,244 691.934967,244 Z M562,120.850794 L568.532278,184.547937 L568.532278,212.02381 C568.532278,224.150159 577.70259,234 588.945645,234 L691.033418,234 C702.29741,234 711.446786,224.127619 711.446786,212.02381 L711.488659,183.939365 L718,120.850794 L674.639914,180.873968 L667.521407,180.873968 L640.010468,92 L612.49953,180.873968 L605.381023,180.873968 L562,120.850794 Z M721.318102,113.428822 L725.367311,113.931459 C725.578207,113.954306 725.789104,114 726,114 C732.622144,114 738,108.173989 738,101 C738,93.8260105 732.622144,88 726,88 C719.377856,88 714,93.8260105 714,101 C714,104.975395 715.70826,108.699473 718.681898,111.212654 L721.318102,113.428822 Z M556,88 C549.377856,88 544,93.8260105 544,101 C544,108.173989 549.377856,114 556,114 C556.210896,114 556.421793,113.954306 556.632689,113.931459 L560.681898,113.428822 L563.318102,111.212654 C566.29174,108.699473 568,104.975395 568,101 C567.97891,93.8260105 562.601054,88 556,88 Z M640,60 C633.377856,60 628,65.6909871 628,72.6987124 C628,78.1218884 631.311072,82.9201717 636.224956,84.6609442 L640,86 L643.775044,84.6609442 C648.688928,82.9201717 652,78.1218884 652,72.6987124 C652,65.6909871 646.622144,60 640,60 Z" id="形状" fill="#E7E8ED" fill-rule="nonzero" opacity="0.400000006" mask="url(#mask-3)"></path>
                </g>
                <path d="M11,165 L691,167" id="直线" stroke="#C4C9D0" stroke-width="2" opacity="0.600000024" stroke-linecap="square" stroke-dasharray="8"></path>
            </g>
        </g>
    </g>
</svg>